<?xml version="1.0" encoding="UTF-8" standalone="no"?>
<!-- Created with Inkscape (http://www.inkscape.org/) -->

<svg
   width="2000"
   height="2000"
   viewBox="0 0 529.16667 529.16667"
   version="1.1"
   id="svg1"
   xml:space="preserve"
   inkscape:version="1.3.2 (091e20e, 2023-11-25, custom)"
   sodipodi:docname="6MD_logo.svg"
   xmlns:inkscape="http://www.inkscape.org/namespaces/inkscape"
   xmlns:sodipodi="http://sodipodi.sourceforge.net/DTD/sodipodi-0.dtd"
   xmlns:xlink="http://www.w3.org/1999/xlink"
   xmlns="http://www.w3.org/2000/svg"
   xmlns:svg="http://www.w3.org/2000/svg"><sodipodi:namedview
     id="namedview1"
     pagecolor="#000000"
     bordercolor="#ffffff"
     borderopacity="0.25"
     inkscape:showpageshadow="2"
     inkscape:pageopacity="0.0"
     inkscape:pagecheckerboard="0"
     inkscape:deskcolor="#d1d1d1"
     inkscape:document-units="mm"
     inkscape:zoom="0.55539773"
     inkscape:cx="945.26854"
     inkscape:cy="999.28389"
     inkscape:window-width="1994"
     inkscape:window-height="1292"
     inkscape:window-x="973"
     inkscape:window-y="17"
     inkscape:window-maximized="0"
     inkscape:current-layer="layer3"
     showguides="true"><sodipodi:guide
       position="235.125,558.13623"
       orientation="0,-1"
       id="guide1"
       inkscape:locked="false" /></sodipodi:namedview><defs
     id="defs1"><rect
       x="460.93094"
       y="1499.8261"
       width="1085.7084"
       height="322.29156"
       id="rect10" /><rect
       x="454.62915"
       y="1353.0844"
       width="943.46803"
       height="90.925831"
       id="rect9" /></defs><g
     inkscape:groupmode="layer"
     id="layer2"
     inkscape:label="Ebene 2"
     style="display:none"
     sodipodi:insensitive="true"><path
       style="display:none;fill:#ffffff"
       d="m 272.77499,472.98491 c -0.0944,-0.24586 -0.49705,-0.39687 -1.05834,-0.39687 -0.58211,0 -0.96345,-0.14963 -1.06664,-0.41852 -0.0883,-0.23018 -0.16059,-3.61354 -0.16059,-7.51857 0,-5.43899 -0.0774,-7.12844 -0.33073,-7.22133 -0.26459,-0.097 -0.26459,-0.19138 0,-0.47184 0.1819,-0.19282 0.33073,-0.79309 0.33073,-1.33394 0,-0.54861 -0.14622,-1.03452 -0.33073,-1.09906 -0.23788,-0.0832 -0.18922,-0.2751 0.17329,-0.6835 0.40463,-0.45584 0.80264,-0.56783 2.01813,-0.56783 1.02308,0 1.62091,-0.1287 1.84347,-0.39687 0.25999,-0.31327 1.01244,-0.39688 3.57188,-0.39688 2.55944,0 3.31188,0.0836 3.57187,0.39688 0.18116,0.21828 0.52957,0.39687 0.77425,0.39687 0.68813,0 2.13617,1.64559 2.13617,2.4276 0,0.37544 0.17859,0.83083 0.39687,1.01199 0.31882,0.26459 0.39688,1.07123 0.39688,4.10104 0,2.80092 0.0899,3.84625 0.34919,4.06147 0.23247,0.19293 0.36965,1.08718 0.41038,2.67514 l 0.0612,2.38533 -1.24033,1.32601 -1.24032,1.32601 h -2.12578 c -1.5339,0 -2.24992,0.11236 -2.57169,0.40355 -0.39965,0.36168 -0.48067,0.36168 -0.78083,0 -0.4599,-0.55415 -3.25118,-0.55917 -3.70971,-0.007 -0.18116,0.21828 -0.54018,0.39688 -0.79784,0.39688 -0.25765,0 -0.53699,-0.1786 -0.62075,-0.39688 z m 8.74373,-3.61799 c 0.53018,-0.49808 0.61236,-0.83107 0.61236,-2.48115 0,-1.37131 -0.11131,-1.99824 -0.39687,-2.23523 -0.21828,-0.18116 -0.39688,-0.73152 -0.39688,-1.22302 0,-0.49151 -0.11906,-0.89365 -0.26458,-0.89365 -0.15862,0 -0.26458,-1.05205 -0.26458,-2.62699 0,-2.61927 -0.003,-2.62978 -0.89114,-3.57188 -0.82397,-0.87366 -1.0075,-0.94488 -2.4348,-0.94488 -1.37786,0 -1.63738,0.0908 -2.41616,0.84565 l -0.87249,0.84566 v 4.15938 c 0,3.09175 0.0849,4.18795 0.33073,4.27069 0.25968,0.0874 0.25474,0.20338 -0.023,0.53985 -0.29654,0.35929 -0.29058,0.51865 0.0369,0.98619 0.21482,0.30671 0.33433,0.77277 0.26558,1.0357 -0.075,0.28678 0.15324,0.75632 0.57043,1.17351 0.64944,0.64943 0.85549,0.69545 3.11378,0.69545 2.11879,0 2.49416,-0.0713 3.03068,-0.57528 z m -37.83328,2.74856 c -0.24646,-0.27233 -0.44811,-0.67956 -0.44811,-0.90494 0,-0.22539 -0.17859,-0.55801 -0.39687,-0.73917 -0.21829,-0.18116 -0.39688,-0.54018 -0.39688,-0.79784 0,-0.25765 -0.17859,-0.53699 -0.39687,-0.62076 -0.24538,-0.0942 -0.39688,-0.49658 -0.39688,-1.05424 0,-0.49607 -0.17859,-1.05017 -0.39687,-1.23133 -0.21829,-0.18115 -0.39688,-0.55292 -0.39688,-0.82614 0,-0.27323 -0.11906,-0.49677 -0.26458,-0.49677 -0.14552,0 -0.26515,-0.20836 -0.26585,-0.46302 -7e-4,-0.25466 -0.42437,-0.92373 -0.9415,-1.48681 l -0.94024,-1.02378 -0.646,0.60688 c -0.5401,0.5074 -0.646,0.857 -0.646,2.13265 0,0.83917 -0.11906,1.59935 -0.26458,1.68929 -0.14552,0.0899 -0.26458,0.55863 -0.26458,1.04155 0,0.48291 -0.17171,1.02054 -0.38158,1.19471 -0.20987,0.17418 -0.41823,0.69477 -0.46302,1.15688 -0.0797,0.82197 -0.1132,0.84187 -1.54587,0.91784 -1.28648,0.0682 -1.54261,-0.006 -2.10781,-0.6072 -0.53507,-0.56955 -0.58891,-0.76081 -0.31983,-1.13599 0.17796,-0.24812 0.39102,-0.62972 0.47348,-0.848 0.0825,-0.21828 0.26713,-0.61457 0.41038,-0.88063 0.18306,-0.34001 0.15767,-0.60831 -0.0855,-0.90292 -0.27326,-0.33113 -0.27645,-0.44255 -0.0152,-0.53049 0.22418,-0.0754 0.33073,-0.73305 0.33073,-2.04124 0,-1.39271 0.11047,-2.02161 0.39688,-2.25931 0.26864,-0.22295 0.39687,-0.82134 0.39687,-1.85208 0,-1.03074 0.12823,-1.62912 0.39688,-1.85208 0.26864,-0.22296 0.39687,-0.82135 0.39687,-1.85209 0,-1.03073 0.12823,-1.62912 0.39688,-1.85208 0.2704,-0.22441 0.39687,-0.82494 0.39687,-1.88448 v -1.5551 h 1.71979 c 1.48867,0 1.71979,0.0649 1.71979,0.48304 0,0.26568 0.29766,0.76268 0.66146,1.10446 0.49992,0.46965 0.66146,0.89014 0.66146,1.72181 0,0.87091 0.16401,1.26135 0.7864,1.87211 0.52573,0.51591 0.78884,1.03953 0.79375,1.5797 0.005,0.5692 0.2793,1.07158 0.92758,1.69991 0.89924,0.87158 0.93243,0.88088 1.45521,0.40777 0.32608,-0.2951 0.53498,-0.81708 0.53498,-1.33679 0,-0.46895 0.17859,-1.00085 0.39687,-1.18201 0.21828,-0.18116 0.39688,-0.73152 0.39688,-1.22302 0,-0.49151 0.11906,-0.89365 0.26458,-0.89365 0.14552,0 0.26458,-0.17859 0.26458,-0.39687 0,-0.21829 -0.12625,-0.39688 -0.28055,-0.39688 -0.16233,0 -0.24595,-0.41718 -0.19844,-0.98999 0.0617,-0.74431 0.21344,-1.01454 0.61129,-1.08894 0.29104,-0.0544 0.61483,-0.23401 0.71953,-0.39907 0.14025,-0.22112 0.33084,-0.21306 0.72401,0.0306 0.29351,0.18191 0.71386,0.33073 0.93412,0.33073 0.34592,0 0.40046,0.82663 0.40046,6.06981 0,3.76113 -0.10063,6.13199 -0.26458,6.23332 -0.14552,0.0899 -0.26459,0.58461 -0.26459,1.09927 0,0.51466 -0.2057,1.28399 -0.45712,1.70961 -0.3744,0.63379 -0.39834,0.868 -0.1323,1.294 0.37966,0.60792 0.43822,2.37941 0.0787,2.37941 -0.1354,0 -0.28423,0.26789 -0.33073,0.59531 -0.0756,0.53221 -0.25442,0.60353 -1.68696,0.67276 -1.29414,0.0625 -1.68863,-0.0178 -2.05052,-0.41771 z m 51.33674,-1.38255 c -0.30845,-0.36024 -0.45568,-0.99091 -0.45568,-1.95198 0,-0.93925 -0.13432,-1.53126 -0.39688,-1.74916 -0.28604,-0.2374 -0.39687,-0.86544 -0.39687,-2.24896 0,-1.38352 -0.11083,-2.01156 -0.39688,-2.24896 -0.50738,-0.42109 -0.50496,-0.90383 0.007,-1.32846 0.36168,-0.30016 0.36168,-0.38118 0,-0.78083 -0.22195,-0.24525 -0.40355,-0.63032 -0.40355,-0.85571 0,-0.22538 -0.17859,-0.55801 -0.39688,-0.73917 -0.31347,-0.26016 -0.39687,-1.01429 -0.39687,-3.58865 0,-1.88745 -0.11136,-3.32811 -0.26458,-3.4228 -0.59415,-0.36721 -0.1966,-0.66146 0.89364,-0.66146 0.70676,0 1.28662,-0.1547 1.48761,-0.39688 0.57114,-0.68818 0.79375,-0.43756 0.79375,0.89365 0,0.82435 0.14336,1.4095 0.39687,1.61989 0.21828,0.18116 0.39688,0.5019 0.39688,0.71276 0,0.21086 0.15749,0.54087 0.34999,0.73337 0.23335,0.23335 0.3703,1.21907 0.41092,2.95766 0.0335,1.43422 0.17367,2.64736 0.31146,2.69587 0.1378,0.0485 0.25054,0.30182 0.25054,0.56291 0,0.2611 0.1786,0.62294 0.39688,0.8041 0.28532,0.2368 0.39687,0.86316 0.39687,2.22844 0,1.08564 0.13119,2.03025 0.30629,2.20535 0.23199,0.23199 0.21837,0.41222 -0.0562,0.743 -0.31113,0.37489 -0.29597,0.48533 0.10702,0.78001 0.35192,0.25732 0.44879,0.6311 0.38689,1.49272 -0.0681,0.94788 -0.1836,1.16382 -0.65868,1.23147 -0.31685,0.0451 -0.71838,0.25348 -0.89229,0.46302 -0.45689,0.55051 -1.64692,0.46786 -2.17697,-0.1512 z m -77.18485,-2.7751 c -0.18116,-0.21828 -0.5459,-0.39688 -0.81053,-0.39688 -0.26464,0 -0.54614,-0.10514 -0.62557,-0.23366 -0.0794,-0.12851 -0.83059,-0.31582 -1.66926,-0.41624 -1.54339,-0.18481 -3.50922,-0.87647 -3.50922,-1.2347 0,-0.10739 -0.26789,-0.2333 -0.59532,-0.27981 -0.37563,-0.0533 -0.62558,-0.29713 -0.67734,-0.66064 -0.0451,-0.31686 -0.25347,-0.71839 -0.46302,-0.89229 -0.52732,-0.43764 -0.51551,-2.98539 0.0159,-3.42641 0.21829,-0.18115 0.39688,-0.64343 0.39688,-1.02728 0,-0.38385 0.29766,-1.01892 0.66146,-1.41127 0.53445,-0.57638 0.66146,-0.98548 0.66146,-2.13061 0,-1.22934 0.10524,-1.51808 0.79375,-2.17771 0.6741,-0.64583 0.79375,-0.95928 0.79375,-2.07949 0,-1.51057 0.72925,-3.32757 1.33956,-3.33764 0.22743,-0.004 0.75572,-0.36402 1.17398,-0.80058 0.6537,-0.68232 0.95325,-0.79375 2.13377,-0.79375 0.89794,0 1.48732,0.13738 1.70269,0.39688 0.18115,0.21828 0.71694,0.39687 1.19062,0.39687 0.47369,0 1.00947,0.17859 1.19063,0.39688 0.18487,0.22276 0.76163,0.39687 1.31466,0.39687 1.16816,0 2.50787,0.61648 3.51398,1.61699 0.67935,0.67557 0.72705,0.86968 0.71919,2.92672 -0.006,1.51657 -0.12947,2.36322 -0.39687,2.71676 -0.21366,0.28247 -0.38846,0.84099 -0.38846,1.24115 0,0.40016 -0.11907,0.80115 -0.26459,0.89109 -0.14552,0.0899 -0.26458,0.87461 -0.26458,1.74371 0,1.16054 -0.1054,1.62063 -0.39687,1.73248 -0.29454,0.11303 -0.39688,0.58117 -0.39688,1.81548 0,1.2343 -0.10234,1.70244 -0.39687,1.81547 -0.21829,0.0838 -0.39688,0.3708 -0.39688,0.63786 0,0.7211 -1.62344,2.17687 -2.4276,2.17687 -0.37543,0 -0.83083,0.1786 -1.01198,0.39688 -0.19835,0.23899 -0.77725,0.39687 -1.45521,0.39687 -0.67796,0 -1.25686,-0.15788 -1.45521,-0.39687 z m 0.66146,-3.57188 c 0.0899,-0.14552 0.35718,-0.26458 0.59387,-0.26458 0.71913,0 1.65509,-1.08413 1.65509,-1.9171 0,-0.42159 0.17859,-0.94512 0.39687,-1.1634 0.26352,-0.26353 0.39688,-0.92395 0.39688,-1.96548 0,-0.86935 0.11794,-1.5686 0.26458,-1.5686 0.14552,0 0.26458,-0.33443 0.26458,-0.74318 0,-0.40875 0.17481,-0.9743 0.38846,-1.25677 0.22765,-0.30098 0.39195,-1.10897 0.39688,-1.95175 0.0108,-1.84681 -0.65229,-2.66289 -2.16368,-2.66289 -0.56184,0 -1.29673,-0.18032 -1.6331,-0.40072 -0.56013,-0.36701 -0.67064,-0.35426 -1.31361,0.1515 -0.38612,0.30372 -0.70203,0.76712 -0.70203,1.02978 0,0.26266 -0.17859,0.62579 -0.39688,0.80694 -0.21828,0.18116 -0.39687,0.5459 -0.39687,0.81054 0,0.26463 -0.11906,0.55474 -0.26458,0.64467 -0.14552,0.0899 -0.26459,0.60999 -0.26459,1.15567 0,0.54568 -0.1748,1.22327 -0.38846,1.50574 -0.21365,0.28248 -0.39224,0.82644 -0.39687,1.2088 -0.005,0.38236 -0.18701,0.84343 -0.40529,1.02458 -0.28423,0.23589 -0.39688,0.8598 -0.39688,2.19816 0,2.36193 0.53907,3.09351 2.27947,3.09351 0.62089,0 1.20247,0.11906 1.29241,0.26458 0.0899,0.14553 0.26853,0.26459 0.39687,0.26459 0.12835,0 0.30694,-0.11906 0.39688,-0.26459 z m 93.06719,1.92901 c -0.61846,-0.6553 -1.12448,-1.33513 -1.12448,-1.51073 0,-0.1756 -0.35719,-0.66148 -0.79375,-1.07973 -0.43656,-0.41826 -0.79375,-0.89442 -0.79375,-1.05814 0,-0.6437 -1.0634,-2.42795 -1.96274,-3.29325 -0.52122,-0.50148 -0.94768,-1.12656 -0.94768,-1.38906 0,-0.26249 -0.11906,-0.47726 -0.26458,-0.47726 -0.14552,0 -0.26458,-0.21585 -0.26458,-0.47967 0,-0.26381 -0.35719,-0.82187 -0.79375,-1.24012 -0.43657,-0.41826 -0.79375,-0.96174 -0.79375,-1.20773 0,-0.246 -0.1786,-0.59549 -0.39688,-0.77665 -0.21828,-0.18116 -0.39687,-0.5459 -0.39687,-0.81053 0,-0.26464 -0.11907,-0.55474 -0.26459,-0.64468 -0.14552,-0.0899 -0.26458,-0.4991 -0.26458,-0.90926 0,-0.41015 -0.17859,-0.89396 -0.39688,-1.07511 -0.51977,-0.43137 -0.50775,-1.22376 0.0216,-1.4269 0.23019,-0.0883 0.80169,-0.1606 1.27,-0.1606 0.46832,0 0.99155,-0.14006 1.16274,-0.31125 0.38718,-0.38718 1.38208,0.41446 1.38208,1.11361 0,0.25067 0.1786,0.60398 0.39688,0.78514 0.21828,0.18115 0.39687,0.67675 0.39687,1.10133 0,0.55642 0.29548,1.05303 1.05834,1.77872 0.58208,0.55372 1.05833,1.18921 1.05833,1.41221 0,0.22299 0.17859,0.55366 0.39688,0.73482 0.21828,0.18116 0.39687,0.61664 0.39687,0.96775 0,0.84403 0.73928,1.94267 1.30723,1.94267 0.54473,0 1.60319,-1.06809 1.60319,-1.61778 0,-0.21618 0.14287,-0.53593 0.3175,-0.71056 0.23574,-0.23574 0.24062,-0.39437 0.019,-0.61603 -0.22166,-0.22166 -0.21825,-0.43496 0.0132,-0.82832 0.24273,-0.41247 0.23853,-0.5563 -0.019,-0.64955 -0.51978,-0.18824 -0.46006,-5.98897 0.0661,-6.42568 0.21828,-0.18116 0.39688,-0.55292 0.39688,-0.82615 0,-0.27322 0.0893,-0.50919 0.19843,-0.52437 0.97057,-0.13502 2.40102,-0.1681 2.77813,-0.0643 0.43086,0.11866 0.46302,0.843 0.46302,10.42843 v 10.30092 l -0.8599,0.0496 c -0.47294,0.0273 -1.18093,0.0571 -1.5733,0.0661 -0.39238,0.009 -0.86268,0.16535 -1.04511,0.34726 -0.45031,0.449 -0.46877,0.43932 -1.74721,-0.91527 z m 17.71284,-4.65358 c -0.57925,-0.59763 -0.84565,-1.12921 -0.84565,-1.6874 0,-0.44819 -0.1786,-0.96312 -0.39688,-1.14428 -0.21828,-0.18115 -0.39687,-0.55292 -0.39687,-0.82614 0,-0.27323 -0.11907,-0.49677 -0.26459,-0.49677 -0.14552,0 -0.26974,-0.50602 -0.27605,-1.12448 -0.007,-0.71269 -0.24885,-1.51205 -0.65967,-2.18281 -0.3565,-0.58209 -0.71786,-1.23693 -0.80302,-1.45521 -0.0852,-0.21828 -0.3241,-0.7129 -0.53097,-1.09916 -0.20686,-0.38625 -0.37612,-1.01133 -0.37612,-1.38906 0,-0.37773 -0.11906,-0.68678 -0.26458,-0.68678 -0.14552,0 -0.26459,-0.40214 -0.26459,-0.89365 0,-0.4915 -0.17859,-1.04186 -0.39687,-1.22302 -0.21828,-0.18116 -0.39688,-0.53834 -0.39688,-0.79375 0,-0.2554 -0.17859,-0.61259 -0.39687,-0.79375 -1.13218,-0.93963 0.46952,-3.43958 2.20371,-3.43958 0.57893,0 0.90615,0.14972 1.0119,0.46302 0.42167,1.24919 1.00963,2.44739 1.20093,2.44739 0.11752,0 0.21367,0.40214 0.21367,0.89365 0,0.4915 0.17859,1.04186 0.39687,1.22302 0.23759,0.19718 0.39688,0.77572 0.39688,1.44149 0,0.84415 0.15937,1.26183 0.66146,1.73351 0.45079,0.4235 0.66145,0.90429 0.66145,1.50963 0,0.54546 0.15316,0.947 0.39688,1.04052 0.21828,0.0838 0.39687,0.42448 0.39687,0.75714 0,0.33267 0.1786,0.67338 0.39688,0.75714 0.21828,0.0838 0.39687,0.47321 0.39687,0.86545 0,0.80578 0.78341,2.74304 1.10926,2.74304 0.11751,0 0.21366,0.40214 0.21366,0.89364 0,0.49151 0.1816,1.04436 0.40355,1.22856 0.36025,0.29898 0.35585,0.38763 -0.041,0.82615 -0.2445,0.27018 -0.64965,0.49123 -0.90032,0.49123 -0.25067,0 -0.60398,0.17859 -0.78514,0.39688 -0.51346,0.61868 -1.14515,0.47318 -2.06476,-0.47562 z m -135.1834,-0.87262 c -0.25711,-0.1951 -0.67956,-0.35851 -0.93879,-0.36314 -0.25923,-0.005 -0.53986,-0.18701 -0.62362,-0.40529 -0.0917,-0.23903 -0.491,-0.39688 -1.00391,-0.39688 -0.56629,0 -1.05981,-0.22161 -1.47302,-0.66145 -0.34178,-0.36381 -0.81803,-0.66146 -1.05833,-0.66146 -0.53211,0 -1.5875,-1.07553 -1.5875,-1.61778 0,-0.21618 -0.13608,-0.52913 -0.30239,-0.69544 -0.16631,-0.16631 -0.30238,-0.95088 -0.30238,-1.74349 0,-1.19134 0.1212,-1.57181 0.69926,-2.19523 0.38863,-0.41912 0.69926,-1.06414 0.69926,-1.45202 0,-0.38386 0.17859,-0.84614 0.39687,-1.02729 0.21828,-0.18116 0.39688,-0.4751 0.39688,-0.65321 0,-0.51211 0.8392,-2.06237 1.50688,-2.78367 0.33538,-0.36232 0.60978,-0.97282 0.60978,-1.35667 0,-0.38385 0.1786,-0.84613 0.39688,-1.02729 0.21828,-0.18115 0.39687,-0.4751 0.39687,-0.6532 0,-1.12975 1.65663,-2.78638 2.78638,-2.78638 0.17811,0 0.47205,-0.17859 0.65321,-0.39687 0.5286,-0.63694 1.83819,-0.48914 2.55917,0.28882 0.49039,0.52914 0.71718,0.6179 0.99327,0.38876 0.27237,-0.22605 0.65843,-0.13708 1.61708,0.37264 0.69261,0.36826 1.40741,0.66957 1.58845,0.66957 0.18104,0 0.39769,0.17859 0.48146,0.39687 0.0938,0.24435 0.49563,0.39688 1.04563,0.39688 1.1066,0 1.7691,0.67972 1.7691,1.81507 0,0.50914 0.15842,0.90816 0.39688,0.99966 0.49998,0.19186 0.49627,0.86806 -0.008,1.53532 -0.21365,0.28247 -0.38846,0.94633 -0.38846,1.47523 0,0.68365 -0.19121,1.14128 -0.66146,1.58305 -0.50498,0.47441 -0.66145,0.88829 -0.66145,1.74958 0,0.88402 -0.17179,1.31626 -0.79375,1.99722 -0.61176,0.66979 -0.79375,1.11794 -0.79375,1.95459 0,0.81581 -0.16436,1.23994 -0.66146,1.70694 -0.37947,0.3565 -0.66146,0.91725 -0.66146,1.31535 0,0.45601 -0.34798,1.03372 -1.01496,1.68501 l -1.01496,0.99108 -2.28789,-0.0451 c -1.43981,-0.0284 -2.46117,-0.17657 -2.75535,-0.39981 z m 3.29025,-4.12762 c 0.55976,-0.54254 0.87249,-1.09995 0.87249,-1.55511 0,-0.3902 0.1786,-0.85767 0.39688,-1.03883 0.21828,-0.18115 0.39687,-0.53834 0.39687,-0.79375 0,-0.2554 0.1786,-0.61259 0.39688,-0.79375 0.21828,-0.18115 0.39687,-0.53217 0.39687,-0.78002 0,-0.24786 0.29013,-0.72321 0.64472,-1.05633 0.54665,-0.51355 0.59696,-0.68682 0.33073,-1.13903 -0.24529,-0.41664 -0.24163,-0.55954 0.0167,-0.65311 0.1819,-0.0659 0.33073,-0.51199 0.33073,-0.99137 0,-0.47937 0.17859,-1.01981 0.39687,-1.20097 0.90727,-0.75296 -0.0114,-2.11667 -1.42583,-2.11667 -0.41708,0 -0.90655,-0.17859 -1.08771,-0.39687 -0.18115,-0.21828 -0.54589,-0.39688 -0.81053,-0.39688 -0.26463,0 -0.55474,-0.11906 -0.64468,-0.26458 -0.0899,-0.14552 -0.26143,-0.26458 -0.38109,-0.26458 -0.39919,0 -1.86786,1.68154 -1.86786,2.13858 0,0.24785 -0.1786,0.51917 -0.39688,0.60293 -0.24372,0.0935 -0.39687,0.49506 -0.39687,1.04052 0,0.60534 -0.21067,1.08613 -0.66146,1.50963 -0.3638,0.34178 -0.66146,0.8242 -0.66146,1.07206 0,0.24786 -0.17859,0.59887 -0.39688,0.78003 -0.21828,0.18115 -0.39687,0.6574 -0.39687,1.05833 0,0.40093 -0.17859,0.87718 -0.39688,1.05833 -0.21828,0.18116 -0.39687,0.5459 -0.39687,0.81054 0,0.26463 -0.11906,0.55474 -0.26458,0.64467 -0.91869,0.56778 0.67059,2.72071 2.14628,2.90747 0.46265,0.0586 0.96672,0.232 1.12016,0.38543 0.56735,0.56736 1.84222,0.30371 2.74023,-0.56667 z m 143.11004,-0.45075 c -0.4339,-0.47945 -0.41788,-0.5405 0.34695,-1.32292 0.44543,-0.45567 1.07733,-0.82027 1.42165,-0.82027 0.34089,0 0.85092,-0.1748 1.13339,-0.38846 0.28248,-0.21365 0.70737,-0.39224 0.94422,-0.39687 0.23684,-0.005 0.57884,-0.18701 0.76,-0.40529 0.18116,-0.21828 0.55292,-0.39688 0.82614,-0.39688 0.27323,0 0.49677,-0.11103 0.49677,-0.24675 0,-0.13571 0.2679,-0.32744 0.59532,-0.42606 1.40009,-0.42171 2.81719,-2.42523 2.05052,-2.89906 -0.14552,-0.0899 -0.26459,-0.37387 -0.26459,-0.63095 0,-1.59294 -3.50355,-2.29663 -4.7625,-0.95655 -0.34177,0.3638 -0.8242,0.66146 -1.07205,0.66146 -0.24786,0 -0.59887,0.17859 -0.78003,0.39687 -0.23673,0.28525 -0.86292,0.39688 -2.22627,0.39688 -1.8864,0 -1.90283,-0.006 -2.97322,-1.12448 -2.0572,-2.14922 -3.36719,-5.96147 -2.34113,-6.81302 0.21828,-0.18116 0.39687,-0.68779 0.39687,-1.12584 0,-0.9635 0.84955,-1.78458 1.84645,-1.78458 0.41219,0 0.96634,-0.2759 1.32855,-0.66146 0.38322,-0.40792 0.91282,-0.66146 1.38167,-0.66146 0.46613,0 0.99177,-0.24979 1.35864,-0.64565 0.41861,-0.45169 1.01273,-0.70062 1.97768,-0.82862 0.75862,-0.10064 1.44319,-0.28634 1.52127,-0.41268 0.27787,-0.4496 1.08068,-0.21864 1.78103,0.51237 0.39103,0.40814 0.71096,0.83402 0.71096,0.94639 0,0.361 -1.53342,1.75111 -1.93162,1.75111 -0.21166,0 -0.53305,0.17859 -0.71421,0.39688 -0.18116,0.21828 -0.53835,0.39687 -0.79375,0.39687 -0.25541,0 -0.61259,0.17859 -0.79375,0.39688 -0.18116,0.21828 -0.64222,0.39963 -1.02459,0.403 -0.76216,0.007 -3.20875,2.12365 -3.20875,2.77639 0,0.20469 0.5465,0.93447 1.21444,1.62173 1.05532,1.08584 1.28017,1.2085 1.7162,0.93619 0.27597,-0.17234 0.6674,-0.31336 0.86984,-0.31336 0.20243,0 0.51628,-0.17859 0.69744,-0.39687 0.18116,-0.21828 0.55292,-0.39688 0.82615,-0.39688 0.27322,0 0.49677,-0.11906 0.49677,-0.26458 0,-0.14552 0.22354,-0.26458 0.49677,-0.26458 0.27322,0 0.64499,-0.1786 0.82614,-0.39688 0.23683,-0.28536 0.86328,-0.39687 2.22946,-0.39687 1.80195,0 1.94375,0.0451 2.74573,0.87249 0.4651,0.47987 0.84755,0.98589 0.84987,1.12448 0.002,0.13859 0.35952,0.65507 0.79375,1.14773 0.43424,0.49267 0.78953,1.03746 0.78953,1.21066 0,0.17319 0.29765,0.59453 0.66146,0.9363 0.52371,0.49201 0.66146,0.88055 0.66146,1.86581 0,0.78336 -0.14705,1.36643 -0.39688,1.57378 -0.21828,0.18115 -0.39687,0.49507 -0.39687,0.69758 0,0.42088 -1.56825,1.9288 -2.01813,1.9405 -0.16408,0.004 -0.44655,0.18634 -0.62771,0.40463 -0.18116,0.21828 -0.53834,0.39687 -0.79375,0.39687 -0.2554,0 -0.61259,0.17859 -0.79375,0.39688 -0.20316,0.24479 -0.78396,0.39687 -1.51567,0.39687 -0.95025,0 -1.28983,0.13162 -1.7066,0.66146 -0.48435,0.61575 -0.6807,0.66146 -2.84134,0.66146 -1.9442,0 -2.3949,-0.0816 -2.77593,-0.50265 z m -162.98078,-3.34505 c -0.2121,-0.2121 -0.73058,-0.38564 -1.15217,-0.38564 -1.24235,0 -1.9171,-0.94911 -1.9171,-2.69663 0,-0.98558 0.13113,-1.58073 0.39688,-1.80128 0.29341,-0.24351 0.39687,-0.89191 0.39687,-2.48714 0,-2.47775 -0.25519,-2.87305 -2.03886,-3.15827 -0.85273,-0.13636 -1.21134,-0.0601 -1.76464,0.37509 -0.38193,0.30042 -0.69442,0.75495 -0.69442,1.01007 0,0.25511 -0.29765,0.74347 -0.66145,1.08525 -0.36381,0.34177 -0.66146,0.8242 -0.66146,1.07205 0,0.24786 -0.1786,0.59887 -0.39688,0.78003 -0.21828,0.18116 -0.39687,0.55292 -0.39687,0.82615 0,0.39521 -0.19738,0.49677 -0.96546,0.49677 -1.37116,0 -2.71667,-1.37782 -2.53752,-2.59845 0.069,-0.46997 0.40736,-1.0733 0.75562,-1.34723 0.40462,-0.31828 0.63069,-0.77021 0.63069,-1.26081 0,-0.57634 0.35847,-1.11873 1.45521,-2.20185 0.80036,-0.79042 1.45521,-1.63498 1.45521,-1.87679 0,-0.24181 0.17859,-0.58788 0.39687,-0.76904 0.21828,-0.18116 0.39688,-0.50732 0.39688,-0.72482 0,-0.21749 0.47625,-0.85762 1.05833,-1.42251 0.7429,-0.72097 1.05833,-1.25 1.05833,-1.77501 0,-0.45568 0.25846,-0.99072 0.66146,-1.36933 0.36381,-0.34177 0.66146,-0.81542 0.66146,-1.05255 0,-0.23713 0.39262,-0.81169 0.87249,-1.27679 1.08504,-1.05167 2.1509,-1.11392 3.15356,-0.1842 0.39235,0.3638 0.88257,0.66146 1.08938,0.66146 0.20682,0 0.52425,0.17859 0.70541,0.39688 0.18115,0.21828 0.48374,0.39687 0.67241,0.39687 0.41668,0 2.07098,0.84791 2.1939,1.12448 0.0485,0.10914 0.29224,0.19844 0.54162,0.19844 0.57057,0 2.4129,1.86034 2.4129,2.4365 0,0.2364 0.0893,0.4695 0.19844,0.51801 0.10914,0.0485 0.40638,0.48407 0.66053,0.96792 0.41027,0.78106 0.41768,0.92413 0.0661,1.27567 -0.21777,0.21777 -0.39594,0.62557 -0.39594,0.90621 0,0.28065 -0.11907,0.51027 -0.26459,0.51027 -0.14552,0 -0.26458,0.39444 -0.26458,0.87654 0,0.62855 -0.22457,1.09169 -0.79375,1.637 -0.43656,0.41826 -0.79375,0.97631 -0.79375,1.24013 0,0.28801 -0.19301,0.47966 -0.48305,0.47966 -0.26567,0 -0.76268,0.29766 -1.10445,0.66146 -0.34178,0.3638 -0.81803,0.66146 -1.05833,0.66146 -0.54159,0 -1.5875,1.07939 -1.5875,1.6383 0,0.22747 -0.1786,0.56179 -0.39688,0.74295 -0.30322,0.25165 -0.39687,0.93939 -0.39687,2.91451 0,2.03121 -0.0834,2.61713 -0.38922,2.73448 -0.21407,0.0822 -0.56276,-0.0242 -0.77485,-0.23627 z m 3.65692,-13.28407 c 1.49958,-1.57178 1.57043,-2.36844 0.32469,-3.65114 -0.48765,-0.50211 -1.00569,-0.91293 -1.15122,-0.91293 -0.14553,0 -0.84066,-0.30629 -1.54473,-0.68065 l -1.28014,-0.68066 -1.27452,1.36461 c -0.70099,0.75054 -1.21553,1.46006 -1.14343,1.57672 0.0721,0.11666 -0.0462,0.35924 -0.26288,0.53907 -0.21668,0.17983 -0.39396,0.55657 -0.39396,0.83722 0,0.61658 1.79903,2.33233 2.4474,2.3341 0.25466,6.9e-4 0.46302,0.12032 0.46302,0.26584 0,0.14552 0.58876,0.26459 1.30836,0.26459 1.21618,0 1.39285,-0.0885 2.50741,-1.25677 z m 181.0367,6.59375 c -0.24083,-0.26612 -0.43788,-0.66057 -0.43788,-0.87654 0,-0.21598 -0.35719,-0.7349 -0.79375,-1.15315 -0.43656,-0.41825 -0.79375,-0.95556 -0.79375,-1.19401 0,-0.23845 -0.29766,-0.71318 -0.66146,-1.05495 -0.3638,-0.34177 -0.66477,-0.80901 -0.66881,-1.03831 -0.004,-0.22929 -0.36123,-0.76416 -0.79375,-1.1886 -0.43252,-0.42444 -0.7864,-0.98998 -0.7864,-1.25677 0,-0.26679 -0.11906,-0.48507 -0.26458,-0.48507 -0.14552,0 -0.26458,-0.21585 -0.26458,-0.47967 0,-0.26381 -0.35719,-0.82187 -0.79375,-1.24012 -0.43657,-0.41825 -0.79375,-0.96173 -0.79375,-1.20773 0,-0.246 -0.1786,-0.59549 -0.39688,-0.77665 -0.21828,-0.18115 -0.39687,-0.55292 -0.39687,-0.82614 0,-0.27323 -0.11907,-0.49677 -0.26459,-0.49677 -0.14552,0 -0.26458,-0.22355 -0.26458,-0.49677 0,-0.27323 -0.1786,-0.64499 -0.39688,-0.82615 -0.55336,-0.45925 -0.50126,-1.94018 0.087,-2.47253 0.30488,-0.27591 0.94104,-0.43789 1.71979,-0.43789 1.03269,0 1.23594,0.0817 1.23594,0.49677 0,0.27323 0.1786,0.64499 0.39688,0.82615 0.21828,0.18116 0.39687,0.52876 0.39687,0.77245 0,0.24369 0.47625,0.90812 1.05834,1.47651 0.58208,0.56839 1.05833,1.25113 1.05833,1.51721 0,0.26607 0.17859,0.5523 0.39687,0.63607 0.21828,0.0838 0.39688,0.35692 0.39688,0.60703 0,0.25011 0.29765,0.73437 0.66146,1.07615 0.3638,0.34177 0.66146,0.78434 0.66146,0.98349 0,0.19915 0.53578,0.93489 1.19062,1.63497 0.65484,0.70008 1.19063,1.39106 1.19063,1.53551 0,0.58633 0.95334,2.1232 1.90196,3.06615 0.55465,0.55132 1.00845,1.09271 1.00845,1.20307 0,0.11037 -0.4515,0.64155 -1.00334,1.1804 -0.82309,0.80373 -1.19599,0.97974 -2.07566,0.97974 -0.70282,0 -1.2232,-0.16672 -1.5102,-0.48385 z m -205.47152,-4.69033 c -0.93866,-0.84803 -1.07679,-1.11743 -1.07679,-2.10025 0,-0.67939 0.15772,-1.25834 0.39688,-1.45682 0.23699,-0.19668 0.39687,-0.77508 0.39687,-1.4357 0,-0.90409 -0.15949,-1.26092 -0.87249,-1.95198 -0.47987,-0.46511 -1.05291,-0.84565 -1.27341,-0.84565 -0.22051,0 -0.74313,-0.35719 -1.16139,-0.79375 -0.83717,-0.87382 -1.96935,-1.05259 -2.51354,-0.39688 -0.18116,0.21828 -0.53834,0.39688 -0.79375,0.39688 -0.2554,0 -0.61259,0.17859 -0.79375,0.39687 -0.18116,0.21828 -0.55292,0.39688 -0.82615,0.39688 -0.27322,0 -0.49677,0.11906 -0.49677,0.26458 0,0.14552 -0.17859,0.26458 -0.39687,0.26458 -0.21828,0 -0.39688,-0.11906 -0.39688,-0.26458 0,-0.14552 -0.21477,-0.26458 -0.47726,-0.26458 -0.2625,0 -0.87864,-0.4141 -1.36919,-0.92023 -0.43578,-0.44962 -0.656,-0.68273 -0.70814,-0.86878 -0.0521,-0.18605 0.0638,-0.32504 0.30037,-0.58643 0.26628,-0.29425 0.64927,-0.53498 0.85109,-0.53498 0.20181,0 0.62984,-0.25104 0.95118,-0.55786 0.32133,-0.30682 0.91167,-0.67565 1.31185,-0.81963 0.40018,-0.14398 0.7276,-0.36919 0.7276,-0.50048 0,-0.13128 0.22355,-0.2387 0.49677,-0.2387 0.27323,0 0.64499,-0.17859 0.82615,-0.39687 0.18116,-0.21828 0.53217,-0.39688 0.78003,-0.39688 0.24785,0 0.73028,-0.29765 1.07205,-0.66146 0.3565,-0.37946 0.91725,-0.66145 1.31534,-0.66145 0.46096,0 1.04089,-0.35532 1.72737,-1.05834 0.56839,-0.58208 1.22261,-1.05833 1.45382,-1.05833 0.23121,0 0.94621,-0.53578 1.58889,-1.19063 0.64268,-0.65484 1.36109,-1.19062 1.59647,-1.19062 0.23538,0 0.70759,-0.29766 1.04936,-0.66146 0.70808,-0.75372 1.93498,-0.88095 2.55134,-0.26458 0.21828,0.21828 0.74556,0.39687 1.17173,0.39687 0.7497,0 0.77485,0.0414 0.77485,1.2768 0,1.01982 -0.13313,1.40186 -0.66146,1.8982 -0.55953,0.52566 -0.66146,0.8602 -0.66146,2.17109 0,1.13342 -0.1066,1.5906 -0.39687,1.70198 -0.21828,0.0838 -0.39688,0.38619 -0.39688,0.67206 0,0.28586 -0.17859,0.69835 -0.39687,0.91663 -0.23329,0.23329 -0.39688,0.87984 -0.39688,1.5686 0,0.64445 -0.11906,1.17173 -0.26458,1.17173 -0.14552,0 -0.26458,0.22354 -0.26458,0.49677 0,0.27322 -0.1786,0.64499 -0.39688,0.82614 -0.26865,0.22296 -0.39687,0.82135 -0.39687,1.85209 0,1.03073 -0.12823,1.62912 -0.39688,1.85208 -0.21828,0.18116 -0.39687,0.52911 -0.39687,0.77323 0,0.24412 -0.14342,0.58727 -0.3187,0.76255 -0.17529,0.17529 -0.38365,0.88371 -0.46302,1.57427 -0.19231,1.67304 -0.87544,1.80163 -2.37483,0.44702 z m 1.34978,-9.81579 c 0.26612,-0.24083 0.48385,-0.64297 0.48385,-0.89364 0,-0.25067 0.17859,-0.60398 0.39688,-0.78514 0.21828,-0.18116 0.39687,-0.55292 0.39687,-0.82615 0,-0.27322 0.11906,-0.49677 0.26458,-0.49677 0.47219,0 0.27953,-1.22737 -0.27083,-1.72545 -0.41046,-0.37146 -0.60806,-0.4119 -0.84667,-0.1733 -0.17118,0.17119 -0.4917,0.31125 -0.71226,0.31125 -0.51863,0 -2.93274,2.37351 -2.93274,2.88342 0,0.56107 1.06591,1.6145 1.63362,1.6145 0.26568,0 0.48305,0.11906 0.48305,0.26458 0,0.40405 0.56345,0.31558 1.10365,-0.1733 z m 215.85469,6.6556 c -0.18115,-0.21829 -0.67967,-0.39688 -1.10781,-0.39688 -0.78874,0 -1.64492,-0.77666 -2.63753,-2.39255 -0.24092,-0.39221 -0.80647,-1.09001 -1.25677,-1.55065 -0.4503,-0.46065 -0.81872,-0.98787 -0.81872,-1.1716 0,-0.18373 -0.47625,-0.7991 -1.05833,-1.36749 -0.73612,-0.7188 -1.05834,-1.25873 -1.05834,-1.77343 0,-0.54276 -0.38785,-1.13095 -1.45521,-2.20687 -1.52242,-1.53464 -1.70704,-1.96361 -1.07197,-2.49068 0.21079,-0.17493 0.41915,-0.87412 0.46303,-1.55375 0.066,-1.02165 0.1758,-1.2494 0.63412,-1.31487 0.30489,-0.0435 1.01366,-0.54956 1.57505,-1.12448 0.56139,-0.57491 1.18082,-1.0453 1.37652,-1.0453 0.1957,0 0.63167,-0.29765 0.96883,-0.66146 0.33716,-0.3638 0.79315,-0.66145 1.0133,-0.66145 0.22016,0 0.54851,-0.1786 0.72967,-0.39688 0.24643,-0.29694 0.90706,-0.39687 2.62353,-0.39687 h 2.29415 l 1.24533,1.31945 c 0.68492,0.7257 1.24532,1.47264 1.24532,1.65985 0,0.18722 0.9525,1.28732 2.11667,2.44465 1.16416,1.15734 2.11666,2.29696 2.11666,2.53248 0,0.23552 0.23706,0.64276 0.52681,0.90497 0.28974,0.26221 0.83054,0.99504 1.20178,1.62851 0.37123,0.63346 0.78901,1.15175 0.9284,1.15175 0.42051,0 0.29687,2.2804 -0.14345,2.64584 -0.21828,0.18115 -0.39687,0.52956 -0.39687,0.77424 0,0.53496 -1.58758,2.13316 -2.12926,2.14352 -0.21136,0.004 -0.74147,0.37549 -1.17803,0.82545 -0.43656,0.44995 -1.27,1.11881 -1.85209,1.48636 -0.58208,0.36754 -1.15354,0.82953 -1.26991,1.02664 -0.30503,0.51663 -3.18958,0.48599 -3.62488,-0.0385 z m 3.57666,-4.1337 c 0.65097,-0.60004 1.57104,-1.29801 2.04461,-1.55103 0.96113,-0.51353 1.23056,-1.32963 0.60921,-1.8453 -0.2253,-0.18699 -0.40964,-0.53695 -0.40964,-0.7777 0,-0.24074 -0.83344,-1.26477 -1.85209,-2.27561 -1.01864,-1.01084 -1.85208,-2.00602 -1.85208,-2.21152 0,-0.2055 -0.29766,-0.64949 -0.66146,-0.98665 -0.3638,-0.33716 -0.66146,-0.75986 -0.66146,-0.93933 0,-0.49653 -1.09141,-1.55104 -1.60531,-1.55104 -0.25011,0 -0.52327,-0.17859 -0.60703,-0.39688 -0.24341,-0.63431 -1.06645,-0.46136 -1.8887,0.39688 -0.41825,0.43656 -0.92594,0.79375 -1.12819,0.79375 -0.20225,0 -0.7369,0.36918 -1.18812,0.8204 -0.69602,0.69601 -0.77316,0.89604 -0.50882,1.31933 0.17138,0.27441 0.31159,0.65497 0.31159,0.84569 0,0.19072 0.47625,0.81182 1.05833,1.3802 0.58209,0.56839 1.05834,1.17329 1.05834,1.34422 0,0.17093 0.17859,0.459 0.39687,0.64016 0.21828,0.18116 0.39688,0.52092 0.39688,0.75503 0,0.42174 4.69088,5.33039 5.09391,5.33039 0.11527,0 0.74219,-0.49095 1.39316,-1.09099 z m -240.22072,-8.03714 c -0.2732,-0.3638 -0.74046,-0.66146 -1.03834,-0.66146 -0.5055,0 -0.49421,-0.0495 0.16935,-0.74208 0.39103,-0.40814 0.71096,-0.91695 0.71096,-1.13069 0,-0.21373 0.9525,-1.33551 2.11667,-2.49285 1.16416,-1.15734 2.11666,-2.25588 2.11666,-2.44119 0,-0.41183 -3.05616,-0.47869 -3.30729,-0.0723 -0.0899,0.14552 -0.48987,0.26458 -0.88874,0.26458 -0.39887,0 -0.86809,0.14287 -1.04272,0.3175 -0.24694,0.24694 -0.38805,0.24694 -0.635,0 -0.17462,-0.17463 -0.53181,-0.3175 -0.79375,-0.3175 -0.60346,0 -0.66211,-1.36845 -0.0794,-1.85208 0.28743,-0.23855 0.39687,-0.86997 0.39687,-2.28966 0,-2.85202 -0.29359,-2.82891 -3.40199,0.26783 -1.55699,1.55115 -2.77173,2.55099 -3.09928,2.55099 -0.74397,0 -2.22999,-1.59527 -2.2299,-2.39384 5e-5,-0.46456 1.31061,-2.05684 2.22838,-2.83168 l 2.58545,-2.18281 2.59443,-2.24896 2.65423,-2.24896 2.10827,-2.1544 c 0.56831,-0.58075 0.9106,-1.28518 2.07135,-1.28518 0.93294,0 1.10365,0.0831 1.10365,0.53747 0,0.29561 0.17859,0.606 0.39687,0.68977 0.22064,0.0847 0.39688,0.47782 0.39688,0.88534 0,0.40317 -0.1786,0.88126 -0.39688,1.06242 -0.23899,0.19835 -0.39687,0.77725 -0.39687,1.45521 0,0.67796 -0.15789,1.25686 -0.39688,1.45521 -0.21828,0.18115 -0.39687,0.54589 -0.39687,0.81053 0,0.26463 -0.11907,0.55474 -0.26459,0.64467 -0.14552,0.0899 -0.26458,0.6777 -0.26458,1.30614 0,0.69288 -0.15621,1.27226 -0.39687,1.47199 -0.21829,0.18116 -0.39688,0.61619 -0.39688,0.96674 0,0.78129 0.75949,1.14537 1.10423,0.52934 0.1541,-0.27536 0.58363,-0.43775 1.15788,-0.43775 0.50209,0 0.91289,-0.11906 0.91289,-0.26458 0,-0.14552 0.40214,-0.26458 0.89365,-0.26458 0.4915,0 1.04186,-0.1786 1.22302,-0.39688 0.18115,-0.21828 0.73525,-0.39687 1.23132,-0.39687 0.55766,0 0.96009,-0.1515 1.05425,-0.39688 0.0838,-0.21828 0.42447,-0.39687 0.75714,-0.39687 0.33266,0 0.67337,-0.1786 0.75713,-0.39688 0.25957,-0.67642 1.34007,-0.44634 2.23367,0.47562 1.3725,1.41606 1.20993,1.8161 -2.06476,5.08063 -1.60073,1.59577 -2.91042,3.0838 -2.91042,3.30675 0,0.22295 -1.46023,1.86209 -3.24497,3.64253 -2.705,2.69851 -3.37696,3.23718 -4.03824,3.23718 -0.53731,0 -0.95356,-0.21343 -1.29001,-0.66146 z m 255.29719,-0.92604 c -0.0899,-0.14552 -0.32802,-0.26458 -0.52907,-0.26458 -0.41494,0 -4.36572,-3.94758 -4.36572,-4.36219 0,-0.1486 -1.30805,-1.57939 -2.90677,-3.17952 -1.59872,-1.60014 -2.90841,-3.09924 -2.91042,-3.33135 -0.004,-0.45816 -0.80626,-1.29778 -1.2401,-1.29778 -0.37241,0 -1.67396,-1.14769 -1.67396,-1.47608 0,-0.14773 0.4515,-0.70949 1.00334,-1.24835 0.95156,-0.92917 1.09327,-0.97973 2.74573,-0.97973 1.22601,0 1.84,0.11761 2.07176,0.39687 0.18116,0.21828 0.53834,0.39688 0.79375,0.39688 0.2554,0 0.61259,0.17859 0.79375,0.39687 0.19973,0.24066 0.77911,0.39688 1.47199,0.39688 0.62844,0 1.2162,0.11906 1.30613,0.26458 0.31442,0.50873 1.86857,0.28968 2.46743,-0.34778 0.3164,-0.3368 0.57528,-0.69454 0.57528,-0.79498 0,-0.10044 -1.30968,-1.51253 -2.91041,-3.13797 -1.60073,-1.62545 -2.91042,-2.9958 -2.91042,-3.04521 0,-0.0494 0.38695,-0.44187 0.8599,-0.87212 0.8454,-0.76908 2.57968,-1.13092 2.57968,-0.53823 0,0.14275 0.27761,0.32922 0.61691,0.41437 0.33929,0.0852 2.03407,1.57571 3.76617,3.31234 1.7321,1.73662 3.3277,3.1575 3.54577,3.1575 0.54395,0 5.82949,5.30771 5.82949,5.85394 0,0.24169 -0.1786,0.50797 -0.39688,0.59174 -0.21828,0.0838 -0.39687,0.3734 -0.39687,0.64364 0,1.28556 -2.61914,2.23363 -3.43959,1.24505 -0.18115,-0.21828 -0.53834,-0.39687 -0.79375,-0.39687 -0.2554,0 -0.61259,-0.1786 -0.79375,-0.39688 -0.2441,-0.29413 -0.89484,-0.39687 -2.51354,-0.39687 -1.6187,0 -2.26944,-0.10275 -2.51354,-0.39688 -0.4948,-0.5962 -1.67857,-0.48339 -2.34239,0.22322 l -0.58255,0.6201 2.91768,2.87757 c 1.60472,1.58267 2.91768,3.06275 2.91768,3.28908 0,0.43392 -2.19687,2.64732 -2.62755,2.64732 -0.1384,0 -0.32522,-0.11906 -0.41516,-0.26458 z"
       id="path9"
       sodipodi:nodetypes="sssssssssssssssssscccsssssccsssssscsscsssssssssscssssssssscssssssscsssssssssssscssssscssssssssssssssssssssssscsssscssssssssssssssssssssssccsssssssssssssscssssssscsssssssssssssscsssssssssssssssscsssssscssssssssssssssssssssssssssssssssssscsssccscssscssssssssssssssssssssssssssssscsssssssssssssssssssssssssscsssssssscsccsssssssssssssssssssssssssssssssssscsssssssssscsssssssssssssscssssssssssscsssssscsssssssssssssssssssssssssssssssssssssssssssssssssssssssssssscssssssssssssssssssssssssssssssssssssssssssssssssssssssssssssssssssssssssssssssssssssssssssssssssssssssssssssssssssssssssssscsssssssssssssssssssssssssssssssssssscccccccccccccccccccccccccccccccccccccccccccccccccssssssssssssssssssssssssssssssscsssss"
       sodipodi:insensitive="true" /><text
       xml:space="preserve"
       style="font-style:normal;font-variant:normal;font-weight:normal;font-stretch:normal;font-size:38.8056px;line-height:0;font-family:Calibri;-inkscape-font-specification:'Calibri, Normal';font-variant-ligatures:normal;font-variant-caps:normal;font-variant-numeric:normal;font-variant-east-asian:normal;text-align:center;letter-spacing:1.41023px;text-anchor:middle;display:inline;fill:#ffffff;stroke-width:0.264583"
       id="text11"
       transform="translate(-0.6737106,-10.348217)"
       inkscape:label="text11"
       sodipodi:insensitive="true"><textPath
         xlink:href="#path14"
         startOffset="50%"
         id="textPath15"
         style="font-style:normal;font-variant:normal;font-weight:normal;font-stretch:normal;font-size:38.8056px;line-height:0;font-family:Calibri;-inkscape-font-specification:'Calibri, Normal';font-variant-ligatures:normal;font-variant-caps:normal;font-variant-numeric:normal;font-variant-east-asian:normal;letter-spacing:1.41023px;stroke-width:0.264583">MAROON DIVISION</textPath></text><path
       style="display:none;fill:none;fill-rule:evenodd;stroke:#ffffff;stroke-width:0.264583px;stroke-linecap:butt;stroke-linejoin:miter;stroke-opacity:1"
       d="m 106.78313,413.153 c 87.37762,117.96201 227.13195,112.65702 317.65454,0"
       id="path14"
       inkscape:connector-type="polyline"
       inkscape:connector-curvature="0"
       sodipodi:nodetypes="cc"
       sodipodi:insensitive="true" /></g><g
     inkscape:groupmode="layer"
     id="layer3"
     inkscape:label="finished"
     style="display:inline"
     sodipodi:insensitive="true"><path
      style="display:inline;fill:#000000"
      d="m 462.05537,361.94041 c -29.32844,-10.17848 -39.3786,-13.72737 -63.11334,-21.78521 -52.22553,143.33088 -221.38737,142.70413 -268.21059,-0.14368 -18.04394,6.0832 -39.971054,13.5779 -63.344575,21.89873 80.932945,187.48896 301.781615,200.11732 394.668505,0.0302 z"
       id="maroon-division-background"
       inkscape:label="Maroon Division Background"
      sodipodi:nodetypes="ccccc"
       sodipodi:insensitive="true" /><path
       d="m 143.38533,452.87021 q -0.10581,0.10854 -0.23944,0.13705 -0.13363,0.0285 -0.32222,-0.0495 -0.17536,-0.0916 -0.4189,-0.27605 -0.24319,-0.15769 -0.58239,-0.48835 -0.31206,-0.30421 -0.50304,-0.56977 -0.19063,-0.23876 -0.28663,-0.41173 -0.0692,-0.17331 -0.0441,-0.30762 0.0251,-0.13432 0.13089,-0.24286 l 14.9063,-15.291 -0.0271,-0.0265 -21.22723,9.26141 q -0.13329,0.0553 -0.28083,0.0438 -0.13397,0.002 -0.33612,-0.0895 -0.17536,-0.0916 -0.3921,-0.27639 -0.21641,-0.15804 -0.48776,-0.42257 -0.28493,-0.27775 -0.462,-0.50329 -0.17706,-0.22553 -0.27306,-0.3985 -0.0828,-0.18654 -0.0981,-0.33374 -0.002,-0.13397 0.0505,-0.24183 l 8.98899,-21.19174 -0.0136,-0.0132 -14.9063,15.29101 q -0.10581,0.10854 -0.23944,0.13704 -0.13363,0.0285 -0.32222,-0.0495 -0.17536,-0.0916 -0.4189,-0.27605 -0.25676,-0.17092 -0.59596,-0.50159 -0.32563,-0.31743 -0.50304,-0.56976 -0.19063,-0.23876 -0.28663,-0.41173 -0.0692,-0.17331 -0.0441,-0.30762 0.0387,-0.12109 0.14447,-0.22963 l 15.73957,-16.14578 q 0.55552,-0.56985 1.09209,-0.52309 0.53657,0.0468 0.9029,0.40388 l 1.41106,1.37555 q 0.43417,0.42325 0.68044,0.8221 0.24627,0.39884 0.31855,0.8133 0.0723,0.41446 -0.0294,0.84454 -0.10172,0.43007 -0.33672,0.91545 l -7.3053,17.67305 0.0678,0.0661 17.64505,-7.51405 q 0.54604,-0.26155 1.00018,-0.37453 0.45414,-0.11298 0.81638,-0.0774 0.38903,0.0352 0.71295,0.21871 0.33715,0.1699 0.67635,0.50056 l 1.47889,1.44169 q 0.20352,0.1984 0.31377,0.43818 0.13705,0.23945 0.12689,0.49416 0.0166,0.25438 -0.10035,0.53726 -0.10376,0.26931 -0.38152,0.55423 z m 21.31407,15.33096 q -0.12748,0.42484 -0.28596,0.63757 -0.13197,0.20885 -0.33277,0.22466 -0.2008,0.0158 -0.51214,-0.1689 -0.29615,-0.17337 -0.76719,-0.5243 -0.47104,-0.35092 -0.7371,-0.5964 -0.26218,-0.21896 -0.38017,-0.37774 -0.0915,-0.16266 -0.0995,-0.31043 0.007,-0.13645 0.0482,-0.31849 l 1.87924,-6.0429 -8.17479,-6.09026 -5.13123,3.52563 q -0.14747,0.1028 -0.30269,0.15256 -0.14389,0.0346 -0.35244,-0.003 -0.18203,-0.0411 -0.47818,-0.21448 -0.28095,-0.16205 -0.70641,-0.47902 -0.44064,-0.32828 -0.69538,-0.58895 -0.25087,-0.23415 -0.29319,-0.43108 -0.0271,-0.1856 0.12004,-0.38314 0.17368,-0.2014 0.54428,-0.44513 l 20.20142,-13.35116 q 0.1853,-0.12187 0.35571,-0.16031 0.18561,-0.0271 0.41323,0.0479 0.24281,0.0864 0.54283,0.28628 0.32654,0.19601 0.78238,0.53562 0.48623,0.36224 0.78268,0.63036 0.30777,0.25292 0.46003,0.46086 0.15225,0.20794 0.16805,0.40874 0.0271,0.1856 -0.0366,0.39803 z m 3.54724,-22.42702 -0.0152,-0.0113 -10.68997,7.27623 6.83765,5.09409 z m 14.85748,34.02459 q -0.076,0.13116 -0.18216,0.20103 -0.10618,0.0699 -0.30813,0.0405 -0.20195,-0.0294 -0.51606,-0.1676 -0.31411,-0.13818 -0.80596,-0.42315 -0.42628,-0.24697 -0.686,-0.44124 -0.24332,-0.18477 -0.36928,-0.34534 -0.11645,-0.17696 -0.13883,-0.36512 -0.006,-0.17865 0.0424,-0.41339 l 0.94611,-6.13088 q 0.14964,-1.05202 0.181,-1.97549 0.0573,-0.93036 -0.15653,-1.73307 -0.20429,-0.81911 -0.7314,-1.49678 -0.51762,-0.69406 -1.48494,-1.25449 l -1.88544,-1.09236 -5.23385,9.03373 q -0.076,0.13116 -0.21495,0.18203 -0.12258,0.0604 -0.32452,0.031 -0.17606,-0.0363 -0.47377,-0.16499 -0.29082,-0.1028 -0.7007,-0.34027 -0.40988,-0.23747 -0.6601,-0.44813 -0.24333,-0.18477 -0.37878,-0.32895 -0.12596,-0.16057 -0.13454,-0.29693 -0.009,-0.13637 0.0674,-0.26753 l 11.37958,-19.64139 q 0.37045,-0.63941 0.84084,-0.69536 0.49628,-0.0628 0.87337,0.15562 l 4.50866,2.61218 q 0.80336,0.46544 1.29951,0.81859 0.52205,0.34625 0.91982,0.6424 1.10615,0.92555 1.77471,1.92605 0.68495,1.00999 0.91592,2.08544 0.23096,1.07544 0.0105,2.17405 -0.19453,1.09171 -0.83095,2.19018 -0.61742,1.06569 -1.40648,1.74726 -0.76315,0.67467 -1.68414,1.01702 -0.9115,0.32595 -1.94114,0.36446 -1.02964,0.0385 -2.15414,-0.17502 0.39166,0.5335 0.60896,1.14116 0.2268,0.59127 0.30253,1.2921 0.0921,0.71032 0.0496,1.53971 -0.0426,0.82939 -0.18009,1.82273 l -0.80533,5.77448 q -0.11242,0.72321 -0.18932,1.00713 -0.0674,0.26753 -0.1434,0.39869 z m 4.38808,-17.36339 q 0.72191,-1.24603 0.65842,-2.42154 -0.054,-1.1919 -1.14714,-2.32889 -0.34339,-0.35224 -0.83954,-0.70539 -0.47975,-0.34365 -1.3159,-0.82809 l -2.3773,-1.37732 -4.14148,7.14828 2.75438,1.5958 q 1.11487,0.64592 2.07022,0.84904 0.98123,0.19622 1.79774,0.0342 0.826,-0.1784 1.45188,-0.69172 0.64228,-0.50383 1.08872,-1.2744 z m 24.29431,16.64608 q -1.13687,2.74904 -2.69713,4.68735 -1.56026,1.93831 -3.50045,2.96083 -1.91544,1.01226 -4.20661,1.04895 -2.28393,0.0192 -4.87538,-1.05252 -2.55643,-1.05722 -4.1186,-2.58495 -1.53743,-1.538 -2.16209,-3.4982 -0.60716,-1.95296 -0.31182,-4.35286 0.29534,-2.39991 1.45393,-5.20148 1.10791,-2.679 2.66093,-4.5998 1.55301,-1.9208 3.47872,-2.9083 1.93296,-1.00501 4.21688,-1.0242 2.29117,-0.0367 4.88262,1.03501 2.5039,1.0355 4.04857,2.55599 1.54466,1.52049 2.16933,3.48069 0.64941,1.94993 0.36132,4.33233 -0.26335,2.37212 -1.40022,5.12116 z m -3.25617,-1.10054 q 0.79654,-1.92608 1.12701,-3.71682 0.35524,-1.80102 0.0494,-3.34229 -0.28106,-1.55154 -1.32939,-2.78476 -1.04834,-1.23321 -3.00944,-2.04423 -1.9611,-0.81102 -3.59597,-0.62594 -1.63488,0.18508 -2.98223,1.06319 -1.32985,0.88534 -2.37823,2.3792 -1.02363,1.48359 -1.76948,3.2871 -0.8255,1.99611 -1.18797,3.81464 -0.36247,1.81852 -0.0814,3.37006 0.2883,1.53403 1.31913,2.76001 1.05558,1.2157 3.05169,2.0412 1.97861,0.81826 3.631,0.64042 1.65238,-0.17783 2.98947,-1.08069 1.34433,-0.92037 2.3752,-2.42147 1.03087,-1.50109 1.7912,-3.33962 z m 27.67438,7.28946 q -0.69895,2.89156 -1.94134,5.04747 -1.24239,2.1559 -3.00151,3.46563 -1.73626,1.29576 -3.99431,1.68565 -2.25359,0.37147 -4.9794,-0.28741 -2.68897,-0.64998 -4.46823,-1.91829 -1.75639,-1.28227 -2.67611,-3.12257 -0.90131,-1.83584 -0.97993,-4.25258 -0.0786,-2.41673 0.63368,-5.36355 0.68114,-2.8179 1.91908,-4.95538 1.23794,-2.13749 2.98816,-3.41038 1.75467,-1.29131 4.00827,-1.66278 2.25804,-0.38989 4.98385,0.26899 2.63372,0.63662 4.39456,1.90048 1.76084,1.26386 2.68057,3.10415 0.94259,1.82633 1.02566,4.22465 0.10594,2.38435 -0.593,5.27592 z m -3.38702,-0.58478 q 0.48971,-2.02594 0.53983,-3.84624 0.073,-1.83426 -0.46703,-3.30986 -0.51716,-1.48957 -1.74328,-2.5462 -1.22612,-1.05663 -3.28889,-1.55525 -2.06278,-0.49861 -3.64949,-0.0634 -1.58672,0.4352 -2.7824,1.51074 -1.17726,1.08 -1.98251,2.71776 -0.78238,1.6238 -1.24092,3.52082 -0.50752,2.09961 -0.58497,3.95229 -0.0774,1.85268 0.43972,3.34225 0.52161,1.47115 1.72931,2.52333 1.23057,1.03821 3.33018,1.54573 2.08119,0.50306 3.68633,0.0723 1.60514,-0.43075 2.78685,-1.52916 1.18616,-1.11683 1.97299,-2.75905 0.78683,-1.64222 1.25428,-3.57607 z m 25.55579,13.82217 q -0.0301,0.37777 -0.18334,0.63168 -0.13437,0.25542 -0.35567,0.40888 -0.20242,0.15496 -0.45398,0.21097 -0.25156,0.056 -0.49711,0.0365 l -1.03886,-0.0827 q -0.49109,-0.0391 -0.86134,-0.1636 -0.34986,-0.14189 -0.6688,-0.43339 -0.29855,-0.30888 -0.60096,-0.80815 -0.28352,-0.49776 -0.62154,-1.26598 l -6.59997,-14.51516 q -0.51874,-1.12474 -1.04884,-2.34543 -0.50972,-1.23807 -0.94989,-2.39457 l -0.0378,-0.003 q -0.0705,1.36297 -0.16433,2.78109 -0.0939,1.41813 -0.20511,2.81587 l -1.17411,14.75177 q -0.0105,0.13222 -0.0966,0.25842 -0.0846,0.10732 -0.27947,0.16784 -0.17451,0.0431 -0.47973,0.0569 -0.28783,0.0341 -0.74115,-0.002 -0.45332,-0.0361 -0.75102,-0.1168 -0.28032,-0.0603 -0.44581,-0.13052 -0.16398,-0.0891 -0.23051,-0.20843 -0.065,-0.13823 -0.0545,-0.27045 l 1.795,-22.55264 q 0.0601,-0.75554 0.50123,-1.04356 0.4411,-0.28803 0.9322,-0.24894 l 1.54884,0.12327 q 0.54776,0.0436 0.89912,0.1666 0.37025,0.12451 0.63554,0.37372 0.28567,0.23183 0.51854,0.64953 0.25326,0.40031 0.52775,1.01141 l 5.07703,11.20061 q 0.46959,1.02579 0.90441,2.0108 0.43632,0.96611 0.83637,1.91034 0.40004,0.94422 0.78271,1.86805 0.40305,0.90645 0.78571,1.83028 l 0.0189,10e-4 q 0.081,-1.49518 0.18988,-3.10219 0.12929,-1.6244 0.24806,-3.11657 l 1.05535,-13.2596 q 0.0105,-0.13222 0.0951,-0.23953 0.0846,-0.10732 0.26058,-0.16934 0.1964,-0.0794 0.48274,-0.0946 0.30522,-0.0137 0.77742,0.0239 0.41555,0.0331 0.71475,0.0949 0.29921,0.0618 0.46169,0.1698 0.16398,0.0891 0.23051,0.20842 0.0665,0.11935 0.056,0.25157 z m 35.06784,-14.19568 q 0.41676,3.15588 -0.0784,5.62945 -0.49766,2.45479 -1.85091,4.21984 -1.33695,1.74379 -3.48944,2.81165 -2.15248,1.06787 -5.27079,1.47967 l -5.14707,0.67972 q -0.43206,0.0571 -0.86375,-0.17263 -0.41539,-0.25094 -0.51214,-0.98355 l -2.86274,-21.67784 q -0.0967,-0.73262 0.24174,-1.064 0.35479,-0.35266 0.78685,-0.40972 l 5.50399,-0.72684 q 3.15587,-0.41676 5.44408,0.12201 2.28572,0.51999 3.95437,1.86686 1.68495,1.32561 2.72411,3.40543 1.05794,2.07735 1.42013,4.81995 z m -3.38272,0.58051 q -0.26047,-1.97242 -0.97214,-3.59857 -0.71416,-1.64493 -1.92984,-2.74582 -1.1969,-1.10337 -2.88541,-1.58755 -1.68851,-0.48418 -4.20569,-0.15177 l -3.28737,0.43413 2.49808,18.91645 3.32494,-0.43909 q 2.32933,-0.30761 3.84915,-1.1008 1.51982,-0.7932 2.4318,-2.13683 0.91197,-1.34364 1.1998,-3.21646 0.30414,-1.89408 -0.0233,-4.37369 z m 14.34125,9.08474 q 0.0352,0.14745 -0.0122,0.27562 -0.0473,0.12817 -0.21407,0.24586 -0.17112,0.0993 -0.47565,0.21087 -0.28171,0.12564 -0.74248,0.23555 -0.44234,0.10552 -0.76886,0.12497 -0.32211,0.0379 -0.51961,0.0266 -0.2019,-0.0298 -0.302,-0.12276 -0.10011,-0.093 -0.13528,-0.24044 l -5.46064,-22.89118 q -0.0352,-0.14744 0.0122,-0.27562 0.0658,-0.13256 0.2369,-0.23182 0.18515,-0.12209 0.47125,-0.2293 0.30014,-0.13003 0.72405,-0.23116 0.46077,-0.10991 0.76885,-0.12497 0.32212,-0.0379 0.52402,-0.008 0.1975,0.0113 0.2976,0.10432 0.1001,0.093 0.13528,0.24045 z m 17.01232,-5.1804 q -0.005,0.22173 -0.0876,0.38999 -0.0829,0.16826 -0.29174,0.31929 -0.1909,0.14492 -0.54361,0.2848 -0.32867,0.15172 -0.84894,0.32853 -0.39469,0.13413 -0.70577,0.21984 -0.28705,0.0976 -0.51452,0.13483 -0.22748,0.0373 -0.40114,0.0563 -0.16181,-0.005 -0.29384,-0.0402 -0.13203,-0.0352 -0.23428,-0.10049 -0.0904,-0.0893 -0.193,-0.21458 l -14.91726,-18.98531 q -0.27765,-0.34591 -0.37485,-0.57304 -0.0854,-0.25116 0.0334,-0.43162 0.11878,-0.18045 0.46539,-0.33827 0.34662,-0.15782 0.95659,-0.36511 0.50233,-0.17072 0.80157,-0.23239 0.31108,-0.0857 0.49693,-0.0688 0.18585,0.0169 0.30029,0.11809 0.12628,0.0772 0.25902,0.23217 l 13.29541,17.27508 0.0179,-0.006 -0.15089,-21.70215 q -0.0132,-0.21563 0.0158,-0.3656 0.0291,-0.14997 0.1841,-0.2827 0.15502,-0.13273 0.47185,-0.26042 0.31073,-0.14562 0.84894,-0.32853 0.55615,-0.18901 0.89737,-0.24493 0.33512,-0.0739 0.48544,0.0151 0.16826,0.0829 0.21773,0.34626 0.0613,0.23932 0.0519,0.68278 z m 15.54032,-6.18162 q 0.0614,0.13858 0.0382,0.27323 -0.0232,0.13465 -0.16574,0.28072 -0.1502,0.12874 -0.42933,0.29391 -0.25413,0.17482 -0.6872,0.36676 -0.41575,0.18427 -0.73327,0.26282 -0.30985,0.0959 -0.50611,0.12069 -0.20394,0.007 -0.31929,-0.0657 -0.11536,-0.0732 -0.17678,-0.21181 l -9.53584,-21.51493 q -0.0614,-0.13858 -0.0382,-0.27323 0.0405,-0.14233 0.19074,-0.27107 0.15984,-0.15375 0.42165,-0.31124 0.27145,-0.18249 0.66988,-0.35908 0.43307,-0.19195 0.73326,-0.26282 0.30985,-0.0959 0.51379,-0.10337 0.19626,-0.0248 0.31162,0.0484 0.11535,0.0732 0.17678,0.21181 z m 15.74758,-15.18359 q 0.81424,1.51991 0.88164,3.01 0.0841,1.48113 -0.47065,2.85311 -0.547,1.34633 -1.6762,2.48864 -1.1125,1.13337 -2.66581,1.96551 -1.08566,0.58159 -2.11941,0.89894 -1.01705,0.30839 -1.89512,0.43485 -0.86136,0.11751 -1.51454,0.102 -0.63648,-0.0245 -0.94428,-0.11751 -0.2911,-0.10201 -0.55237,-0.34896 -0.25352,-0.27261 -0.53089,-0.79038 -0.19685,-0.36745 -0.28871,-0.61918 -0.10081,-0.26843 -0.11453,-0.45454 -0.0137,-0.18611 0.0596,-0.28991 0.0644,-0.12049 0.19804,-0.19207 0.23383,-0.12527 0.8035,-0.065 0.58637,0.0513 1.43342,0.0274 0.84705,-0.0239 1.94343,-0.22429 1.10415,-0.22607 2.34012,-0.8882 0.93533,-0.50107 1.56942,-1.16319 0.6508,-0.67108 0.96039,-1.41731 0.31734,-0.77189 0.26008,-1.60104 -0.0573,-0.82915 -0.51359,-1.68097 -0.49213,-0.91863 -1.25864,-1.34633 -0.76652,-0.4277 -1.7108,-0.54521 -0.95322,-0.13422 -2.05319,-0.0608 -1.09221,0.0477 -2.23453,0.12228 -1.15127,0.0579 -2.29717,0.005 -1.1459,-0.0525 -2.20649,-0.38714 -1.0606,-0.33465 -1.99593,-1.03734 -0.92757,-0.72834 -1.63444,-2.04782 -0.72476,-1.35289 -0.80409,-2.66462 -0.0716,-1.33738 0.41219,-2.52086 0.50048,-1.19243 1.5062,-2.20411 1.01347,-1.03733 2.41647,-1.78893 0.7182,-0.38475 1.50798,-0.63588 0.79753,-0.27678 1.54854,-0.39966 0.75877,-0.14853 1.403,-0.14973 0.63528,-0.0179 0.87508,0.0686 0.24755,0.0609 0.35135,0.13422 0.0948,0.0567 0.20877,0.18909 0.10499,0.11573 0.22906,0.30721 0.12408,0.19148 0.29408,0.50882 0.16106,0.30065 0.25292,0.55237 0.10857,0.24278 0.14794,0.43665 0.0304,0.17716 -0.0251,0.31436 -0.0477,0.11155 -0.16463,0.17418 -0.18373,0.0984 -0.70985,0.0793 -0.50942,-0.028 -1.22941,-0.008 -0.72894,0.004 -1.63922,0.19029 -0.90252,0.16105 -1.87125,0.68002 -0.90193,0.48317 -1.43581,1.09161 -0.54282,0.59174 -0.76234,1.22523 -0.21952,0.6335 -0.14138,1.301 0.0781,0.66749 0.40921,1.28548 0.48317,0.90193 1.24969,1.32963 0.76651,0.42769 1.71974,0.56191 0.96993,0.12527 2.07884,0.0686 1.10892,-0.0567 2.26019,-0.11452 1.14231,-0.0746 2.30492,-0.031 1.15365,0.0268 2.21425,0.36149 1.06835,0.30899 1.99592,1.03734 0.93533,0.70269 1.6243,1.98877 z m 10.88075,0.66268 q 0.0809,0.12819 0.0775,0.26478 -0.003,0.1366 -0.12319,0.30183 -0.12988,0.14921 -0.38205,0.35319 -0.22602,0.20989 -0.62659,0.46274 -0.38456,0.24274 -0.68729,0.36661 -0.29262,0.13989 -0.48319,0.19296 -0.20068,0.037 -0.32546,-0.0186 -0.12477,-0.0557 -0.20569,-0.18386 l -12.56161,-19.90051 q -0.0809,-0.12819 -0.0775,-0.26478 0.0194,-0.14671 0.14932,-0.29592 0.13579,-0.17535 0.37193,-0.36922 0.24205,-0.22 0.61058,-0.45263 0.40057,-0.25285 0.68728,-0.3666 0.29262,-0.13989 0.49331,-0.17694 0.19057,-0.0531 0.31534,0.003 0.12478,0.0557 0.20569,0.18386 z m 15.79597,-26.22189 q 1.79331,2.37355 2.67316,4.70106 0.87984,2.32752 0.77769,4.51828 -0.0985,2.16423 -1.2283,4.15778 -1.14127,1.97844 -3.37875,3.66895 -2.20725,1.66766 -4.31606,2.23977 -2.1051,0.54557 -4.11143,0.0903 -1.99121,-0.46667 -3.91017,-1.93784 -1.91897,-1.47117 -3.74654,-3.89007 -1.74762,-2.31308 -2.61605,-4.62548 -0.86842,-2.31239 -0.74342,-4.47293 0.11358,-2.17565 1.25484,-4.15408 1.12984,-1.99355 3.36733,-3.68406 2.16189,-1.6334 4.25558,-2.19408 2.09368,-0.56069 4.10001,-0.10545 2.01002,0.4287 3.91756,1.88476 1.91124,1.42951 3.70455,3.80306 z m -2.59931,2.24886 q -1.25646,-1.66299 -2.63253,-2.85565 -1.37236,-1.2192 -2.85594,-1.73693 -1.47988,-0.54426 -3.07433,-0.26577 -1.59445,0.27849 -3.28769,1.55779 -1.69323,1.27931 -2.36247,2.78237 -0.66924,1.50306 -0.59535,3.1096 0.089,1.59512 0.84523,3.2561 0.75992,1.63443 1.93642,3.1916 1.30215,1.72347 2.68594,2.95779 1.38379,1.23431 2.86367,1.77858 1.46846,0.52915 3.04779,0.26208 1.58303,-0.29361 3.3065,-1.59576 1.70835,-1.29072 2.39271,-2.80521 0.68436,-1.51448 0.58392,-3.12472 -0.11185,-1.62536 -0.88319,-3.27491 -0.77134,-1.64955 -1.97068,-3.23696 z m 27.67013,-10.27214 q 0.25991,0.27578 0.34533,0.5598 0.0992,0.27102 0.0645,0.53807 -0.0209,0.25406 -0.1482,0.47817 -0.12727,0.2241 -0.30653,0.39304 l -0.75839,0.71478 q -0.35851,0.33789 -0.69927,0.52886 -0.33997,0.16419 -0.77011,0.20507 -0.42935,0.0141 -1.00245,-0.0967 -0.55931,-0.12379 -1.35572,-0.38865 l -15.19086,-4.84638 q -1.18201,-0.3701 -2.44279,-0.79616 -1.25998,-0.45284 -2.41283,-0.9025 l -0.0276,0.026 q 0.96328,0.96681 1.95176,1.98799 0.98848,1.02118 1.95017,2.04156 l 10.14977,10.7692 q 0.091,0.0965 0.12678,0.24503 0.0228,0.13472 -0.0631,0.31983 -0.0851,0.15833 -0.27975,0.39384 -0.16785,0.23631 -0.49878,0.54821 -0.33094,0.3119 -0.59055,0.47847 -0.23282,0.16736 -0.39591,0.24295 -0.17609,0.0618 -0.30922,0.0311 -0.14613,-0.0445 -0.2371,-0.14106 l -15.51705,-16.46405 q -0.51984,-0.55156 -0.43741,-1.07188 0.0824,-0.52032 0.44094,-0.85822 l 1.1307,-1.06566 q 0.39988,-0.37688 0.72685,-0.55485 0.34076,-0.19097 0.70354,-0.22044 0.36358,-0.0563 0.82954,0.0514 0.46675,0.0808 1.10404,0.28737 l 11.71139,3.75144 q 1.07566,0.34015 2.09776,0.67871 1.0091,0.32477 1.97762,0.66175 0.96853,0.33697 1.91027,0.67315 0.94253,0.3094 1.88427,0.64558 l 0.0138,-0.013 q -1.05425,-1.06333 -2.17268,-2.2224 -1.11765,-1.18585 -2.14432,-2.27518 l -9.1231,-9.67987 q -0.091,-0.0965 -0.11379,-0.23124 -0.0228,-0.13472 0.0493,-0.30684 0.0729,-0.1989 0.25376,-0.42142 0.19463,-0.23551 0.53935,-0.5604 0.30336,-0.28591 0.54998,-0.46627 0.24661,-0.18036 0.43569,-0.22837 0.17609,-0.0618 0.30922,-0.0311 0.13313,0.0308 0.2241,0.12727 z"
       id="text1"
      style="font-size:38.8056px;line-height:0;font-family:Calibri;-inkscape-font-specification:'Calibri, Normal';text-align:center;letter-spacing:1.41023px;text-anchor:middle;display:inline;fill:#ffffff;stroke-width:0.264583"
       inkscape:label="Maroon Division"
       transform="translate(-0.67371061,-10.348217)"
       aria-label="MAROON DIVISION"
       sodipodi:insensitive="true" /><path
       style="display:inline;fill:#ffffff"
       d="m 111.55508,377.45678 1.71711,-1.20356 11.49791,19.68484 -1.80027,1.08826 z m -15.561318,-9.02873 2.116019,-1.26228 15.217129,25.41122 -1.89167,1.29793 z m 18.664548,0.0589 1.88383,-1.20135 15.40103,25.4242 -1.93019,1.28453 z"
       id="path1"
       sodipodi:nodetypes="ccccccccccccccc"
       inkscape:label="Left Line"
       sodipodi:insensitive="true" /><path
       style="display:inline;fill:#ffffff"
       d="m 414.83565,377.28835 -1.71711,-1.20356 -11.49791,19.68484 1.80027,1.08826 z m 15.56132,-9.02873 -2.11602,-1.26228 -15.21713,25.41122 1.89167,1.29793 z m -18.66455,0.0589 -1.88383,-1.20135 -15.40103,25.4242 1.93019,1.28453 z"
       id="path4"
       sodipodi:nodetypes="ccccccccccccccc"
       inkscape:label="Right Line"
      sodipodi:insensitive="true" /><path
       style="display:inline;fill:#ffffff"
       d="m 81.07667,421.86553 c -27.231846,12.09968 -32.197549,14.236 -50.352636,22.36532 1.947386,-16.66633 3.820151,-33.34336 5.555221,-50.03423 C 24.661718,386.11653 12.390462,377.57897 0.96950758,369.01712 8.005649,366.53044 84.149943,340.23286 125.74016,325.84073 c 0.0214,-6.72962 0.48508,-149.42581 0.72636,-223.68812 23.60774,-15.665208 68.60742,-43.010031 138.64661,-86.956086 46.10471,28.743986 79.92477,51.524288 137.93477,86.841746 0.0266,73.70963 0.85101,149.04694 1.12289,223.336 39.71352,14.17641 82.89774,29.30816 123.75823,43.77517 -5.96449,4.38346 -20.81322,15.33218 -35.43774,26.18026 1.62173,13.78571 5.90049,44.47426 6.53322,48.72637 -20.91215,-9.93285 -50.32211,-22.4819 -50.35043,-22.44529 -100.08709,129.38104 -266.76029,130.77242 -367.5974,0.25475 z m 380.9787,-59.92512 c -29.32844,-10.17848 -39.3786,-13.72737 -63.11334,-21.78521 -52.22553,143.33088 -221.38737,142.70413 -268.21059,-0.14368 -18.04394,6.0832 -39.971054,13.5779 -63.344575,21.89873 80.932945,187.48896 301.781615,200.11732 394.668505,0.0302 z M 377.87953,345.94679 C 377.70265,269.96598 377.57878,193.62446 377.44165,116.23081 309.2178,73.867915 268.62876,48.175312 265.05127,45.913493 c -4.98307,3.031028 -57.03705,35.371842 -112.86133,71.537967 -0.24933,76.12321 -0.23386,152.24655 -0.23386,228.37003 36.59109,23.03912 84.08045,56.0171 113.04492,74.60938 62.02967,-39.23334 63.22418,-42.80553 112.87853,-74.48408 z"
       id="path6"
       sodipodi:nodetypes="ccccccccccccscccccccccccccc"
       inkscape:label="Outer"
       sodipodi:insensitive="true" /><path
      style="display:inline;fill:#000000"
      d="M 377.87953,345.94679 C 377.70265,269.96598 377.57878,193.62446 377.44165,116.23081 309.2178,73.867915 268.62876,48.175312 265.05127,45.913493 c -4.98307,3.031028 -57.03705,35.371842 -112.86133,71.537967 -0.24933,76.12321 -0.23386,152.24655 -0.23386,228.37003 36.59109,23.03912 84.08045,56.0171 113.04492,74.60938 62.02967,-39.23334 63.22418,-42.80553 112.87853,-74.48408 z"
      id="path6-inner-fill"
      inkscape:label="Outer Inner Fill"
      sodipodi:insensitive="true" /><path
       style="display:inline;fill:#ffffff"
       d="m 169.493,337.94968 c 0.0385,-69.14939 -0.0312,-138.29904 -0.0755,-207.4485 2.86243,-0.34294 95.39529,-59.832957 95.39529,-59.832957 l 95.23768,59.703337 0.0681,16.72407 c 0.0375,9.19824 0.0689,17.19404 0.0673,17.3659 -17.40065,-11.24479 -64.52814,-40.11837 -95.40261,-59.11476 -1.91077,-0.0387 -65.08821,39.44549 -65.73186,40.10957 0.0105,21.79313 -0.014,43.58628 0.003,65.3794 17.76475,-10.02797 32.43006,-18.46046 65.9462,-37.35033 40.5478,23.14141 40.97122,23.52946 95.18319,54.4597 -0.005,36.4012 -10e-4,72.80243 -10e-4,109.20364 -21.8612,12.35868 -86.386,49.12797 -95.23673,54.41778 -32.10658,-17.99359 -68.74989,-38.66716 -95.4534,-53.61685 z m 158.14642,-19.38475 v -35.69698 -35.69698 c -20.10833,-11.58535 -47.55521,-27.61243 -62.63303,-36.20465 -14.45262,8.39158 -34.70375,19.8379 -63.04596,36.20591 l 0.1342,71.56102 c 24.53585,14.18859 41.29907,23.69869 62.84364,36.15999 38.07277,-22.34723 43.0064,-24.9464 62.70115,-36.32831 z"
       id="path8"
       sodipodi:nodetypes="csccscccccccccccscccccc"
       inkscape:label="6"
      sodipodi:insensitive="true" /><path
      style="display:inline;fill:#ffffff"
      d="M 254.77703,302.5358 257.74,287.472 246.941,277.591 h 13.91966 l 6.38991,-15.07005 6.57138,15.07005 h 14.77672 l -11.5873,9.881 3.53226,15.064 -13.58943,-7.35079 -12.17712,7.35079 z"
      id="path5"
      sodipodi:nodetypes="cccccccccccc"
      inkscape:label="Star"
      sodipodi:insensitive="true" /><path
       style="display:inline;fill:#ffffff"
       d="m 420.239,132.181 c 0,0 0.0173,-15.54431 0,-23.249 h -7.8006 v -4.914 h 22.0926 v 4.914 h -8.46 v 23.249 z m 19.58376,0 v -28.163 h 5.56701 c -0.002,4.12401 -0.019,8.24801 -0.0318,12.372 h 14.044 v -12.372 h 5.556 l 2.4e-4,28.163 H 459.402 V 119.89884 H 445.358 V 132.181 Z"
       id="path3"
       sodipodi:nodetypes="cccccccccccccccccccccc"
       inkscape:label="TH"
       sodipodi:insensitive="true" /></g></svg>
